<?xml version="1.0" standalone="no"?>
<!DOCTYPE svg PUBLIC "-//W3C//DTD SVG 20010904//EN"
 "http://www.w3.org/TR/2001/REC-SVG-20010904/DTD/svg10.dtd">
<svg version="1.0" xmlns="http://www.w3.org/2000/svg"
 width="1100.000000pt" height="1100.000000pt" viewBox="0 0 1100.000000 1100.000000"
 preserveAspectRatio="xMidYMid meet">

<g transform="translate(0.000000,1100.000000) scale(0.100000,-0.100000)"
fill="#000000" stroke="none">
<path d="M1935 9274 c-47 -24 -104 -85 -130 -139 -22 -46 -45 -165 -32 -165 3
0 13 26 22 58 25 86 63 148 128 208 60 56 63 65 12 38z"/>
<path d="M9307 8710 c-14 -169 -103 -312 -239 -381 -60 -31 -30 -36 36 -6 137
63 227 207 225 361 -1 97 -15 112 -22 26z"/>
<path d="M3902 6974 c-8 -30 -22 -64 -33 -75 -29 -29 -24 -91 16 -205 19 -54
40 -108 45 -119 6 -11 16 -40 24 -65 8 -25 28 -83 46 -130 61 -167 82 -226 95
-265 47 -140 105 -252 105 -200 0 9 9 19 20 22 23 6 27 33 5 33 -8 0 -15 5
-15 11 0 7 10 9 27 4 32 -8 90 -70 99 -105 11 -48 17 -57 21 -33 4 18 -117
367 -158 458 -5 11 -20 49 -33 85 -57 160 -109 297 -117 315 -5 11 -13 34 -19
50 -18 59 -97 256 -106 265 -6 6 -14 -12 -22 -46z m318 -795 c0 -5 -4 -9 -10
-9 -5 0 -10 7 -10 16 0 8 5 12 10 9 6 -3 10 -10 10 -16z m19 -98 c-3 -6 -10
-7 -18 -2 -7 5 -10 14 -6 21 9 14 29 -2 24 -19z m28 -53 c-3 -8 -6 -5 -6 6 -1
11 2 17 5 13 3 -3 4 -12 1 -19z"/>
<path d="M883 6243 c25 -47 112 -120 175 -145 82 -32 226 -32 296 0 27 12 47
24 45 26 -2 2 -38 -3 -79 -12 -138 -28 -285 14 -399 114 -49 44 -52 45 -38 17z"/>
<path d="M7609 5884 c-220 -194 -205 -178 -189 -209 7 -14 20 -25 29 -25 9 1
61 40 116 88 79 70 111 107 157 181 32 51 58 94 58 97 0 15 -35 -12 -171 -132z"/>
<path d="M4196 5891 c-5 -8 21 -111 31 -121 5 -6 23 21 23 36 0 7 -9 14 -21
17 -22 6 -24 41 -1 43 6 1 17 2 22 3 6 0 10 8 10 16 0 16 -55 22 -64 6z"/>
<path d="M4374 5790 c3 -14 6 -28 6 -32 0 -5 5 -8 11 -8 12 0 2 39 -13 55 -7
7 -9 2 -4 -15z"/>
<path d="M7088 5461 c-38 -44 -171 -154 -718 -591 -607 -484 -636 -509 -773
-649 -71 -72 -144 -140 -162 -151 -77 -48 -285 -88 -320 -62 -5 4 -21 39 -34
77 -13 39 -29 84 -36 100 -17 38 -172 446 -256 670 -34 94 -67 173 -72 177 -6
3 -90 6 -188 6 -173 1 -179 0 -261 -30 -103 -38 -175 -58 -206 -58 -19 0 -22
5 -20 26 l3 27 -75 -2 c-106 -3 -154 37 -65 53 19 4 37 11 40 16 6 10 -1 12
-112 30 -40 6 -74 17 -76 23 -2 7 -11 -4 -20 -24 -8 -20 -20 -40 -26 -43 -6
-4 -11 -18 -11 -31 0 -14 -13 -47 -30 -73 -16 -27 -30 -54 -30 -60 0 -6 20
-14 45 -18 43 -6 59 -24 35 -39 -5 -3 -10 -15 -10 -25 0 -28 59 -44 136 -35
l65 7 -6 -25 c-4 -14 -2 -28 4 -32 6 -3 73 15 149 42 l137 48 180 -3 c99 -2
185 -8 191 -13 12 -10 31 -57 146 -354 28 -71 54 -139 58 -150 20 -49 65 -166
90 -235 15 -41 41 -111 58 -155 17 -44 33 -93 37 -109 l6 -28 88 4 c133 6 188
37 359 200 76 72 169 156 207 187 67 53 955 760 1155 920 52 42 121 100 153
129 48 44 61 51 76 42 31 -16 92 -91 112 -137 19 -45 38 -53 59 -28 20 24 41
18 112 -30 37 -25 72 -45 77 -45 5 0 19 14 31 30 12 17 28 30 36 30 26 0 98
80 169 189 54 82 65 105 54 112 -8 5 -23 8 -34 7 -16 -2 -19 -9 -17 -31 4 -28
2 -29 -35 -25 -37 3 -38 2 -35 -29 3 -46 -23 -44 -98 7 -67 45 -71 46 -105 24
-33 -22 -49 -14 -75 39 -27 54 -97 137 -115 137 -7 0 -28 -17 -47 -39z"/>
<path d="M7607 5494 c-11 -11 13 -44 32 -44 23 0 37 30 19 42 -16 9 -42 10
-51 2z"/>
<path d="M9540 5451 c-21 -6 -17 -9 25 -15 234 -34 409 -205 462 -451 13 -57
19 -72 26 -59 20 35 -12 181 -61 278 -30 61 -122 159 -180 193 -87 51 -202 74
-272 54z"/>
<path d="M3991 5271 c-22 -14 -3 -31 34 -31 43 0 54 17 20 30 -32 12 -36 12
-54 1z"/>
<path d="M3796 5200 c-14 -22 -26 -41 -26 -43 0 -11 134 1 138 11 2 7 -1 12
-7 12 -6 0 -26 13 -44 30 l-34 30 -27 -40z"/>
<path d="M9152 5040 c0 -14 2 -19 5 -12 2 6 2 18 0 25 -3 6 -5 1 -5 -13z"/>
<path d="M9146 4835 c6 -52 30 -123 47 -140 7 -7 7 -3 2 10 -5 11 -16 52 -27
90 -24 91 -29 101 -22 40z"/>
<path d="M6420 4340 c0 -5 5 -10 10 -10 6 0 10 5 10 10 0 6 -4 10 -10 10 -5 0
-10 -4 -10 -10z"/>
<path d="M2040 3464 c78 -66 128 -125 161 -193 28 -57 34 -79 38 -161 4 -98
18 -94 20 6 3 134 -86 279 -219 359 l-45 26 45 -37z"/>
<path d="M2110 3290 c6 -11 13 -20 16 -20 2 0 0 9 -6 20 -6 11 -13 20 -16 20
-2 0 0 -9 6 -20z"/>
<path d="M1220 3054 c0 -60 64 -170 143 -245 63 -62 182 -122 283 -145 96 -21
229 -16 293 12 l43 19 -125 -3 c-149 -4 -213 9 -335 69 -106 52 -199 137 -258
238 -27 47 -44 68 -44 55z"/>
</g>
</svg>
